<?xml version="1.0" encoding="utf-8"?><!-- Uploaded to: SVG Repo, www.svgrepo.com, Generator: SVG Repo Mixer Tools -->
<svg width="24px" height="24px" viewBox="0 0 24 24" id="navProfile" fill="none" xmlns="http://www.w3.org/2000/svg">
    <symbol id='message' viewBox="0 0 24 24">
        <path d="M7.5 12H7.51M12 12H12.01M16.5 12H16.51M12 21C16.9706 21 21 16.9706 21 12C21 7.02944 16.9706 3 12 3C7.02944 3 3 7.02944 3 12C3 13.1971 3.23374 14.3397 3.65806 15.3845C3.73927 15.5845 3.77988 15.6845 3.798 15.7653C3.81572 15.8443 3.8222 15.9028 3.82221 15.9839C3.82222 16.0667 3.80718 16.1569 3.77711 16.3374L3.18413 19.8952C3.12203 20.2678 3.09098 20.4541 3.14876 20.5888C3.19933 20.7067 3.29328 20.8007 3.41118 20.8512C3.54589 20.909 3.73218 20.878 4.10476 20.8159L7.66265 20.2229C7.84309 20.1928 7.9333 20.1778 8.01613 20.1778C8.09715 20.1778 8.15566 20.1843 8.23472 20.202C8.31554 20.2201 8.41552 20.2607 8.61549 20.3419C9.6603 20.7663 10.8029 21 12 21ZM8 12C8 12.2761 7.77614 12.5 7.5 12.5C7.22386 12.5 7 12.2761 7 12C7 11.7239 7.22386 11.5 7.5 11.5C7.77614 11.5 8 11.7239 8 12ZM12.5 12C12.5 12.2761 12.2761 12.5 12 12.5C11.7239 12.5 11.5 12.2761 11.5 12C11.5 11.7239 11.7239 11.5 12 11.5C12.2761 11.5 12.5 11.7239 12.5 12ZM17 12C17 12.2761 16.7761 12.5 16.5 12.5C16.2239 12.5 16 12.2761 16 12C16 11.7239 16.2239 11.5 16.5 11.5C16.7761 11.5 17 11.7239 17 12Z" stroke="#000000" stroke-width="2" stroke-linecap="round" stroke-linejoin="round"/>
    </symbol>
<symbol viewBox="0 0 24 24" id='music'>
    <path d="M9.772 4.28c.56-.144 1.097.246 1.206.814.1.517-.263 1.004-.771 1.14A7 7 0 1 0 19 12.9c.009-.5.4-.945.895-1 .603-.067 1.112.371 1.106.977L21 13c0 .107-.002.213-.006.32a.898.898 0 0 1 0 .164l-.008.122a9 9 0 0 1-9.172 8.392A9 9 0 0 1 9.772 4.28z" fill="#000000"/><path d="M15.93 13.753a4.001 4.001 0 1 1-6.758-3.581A4 4 0 0 1 12 9c.75 0 1.3.16 2 .53 0 0 .15.09.25.17-.1-.35-.228-1.296-.25-1.7a58.75 58.75 0 0 1-.025-2.035V2.96c0-.52.432-.94.965-.94.103 0 .206.016.305.048l4.572 1.689c.446.145.597.23.745.353.148.122.258.27.33.446.073.176.108.342.108.801v1.16c0 .518-.443.94-.975.94a.987.987 0 0 1-.305-.049l-1.379-.447-.151-.05c-.437-.14-.618-.2-.788-.26a5.697 5.697 0 0 1-.514-.207 3.53 3.53 0 0 1-.213-.107c-.098-.05-.237-.124-.521-.263L16 6l.011 7c0 .255-.028.507-.082.753h.001z" fill="#000000"/>
</symbol>
    <symbol id='likes' viewBox="0 -0.5 1025 1025">
        <path d="M512.8 977.4c-26.1 0-50.1-7.3-71.5-21.7C323.5 897 0 675.3 0 400.5 0 212 153.4 58.6 341.9 58.6c60.5 0 119 15.8 170.9 45.9 51.9-30.1 110.5-45.9 170.9-45.9 188.5 0 341.9 153.4 341.9 341.9 0 274.8-323.5 496.6-441.3 555.2-21.4 14.4-45.4 21.7-71.5 21.7zM341.9 144.1c-141.4 0-256.4 115-256.4 256.4 0 117.2 80.6 225.2 148.2 295.1 86.1 89 187.5 155.2 248.1 184.8l6.1 3.7c15.1 10.8 34.6 10.8 49.7 0l6.1-3.7C604.4 850.7 705.8 784.6 791.8 695.6c67.6-69.9 148.2-177.8 148.2-295.1 0-141.4-115-256.4-256.4-256.4-52.6 0-103.2 16-146.5 46.1L512.8 207.3l-24.5-17.1c-43.2-30.2-93.9-46.1-146.4-46.1z" fill="#3688FF" />

    </symbol>
    <symbol id="news" viewBox="0 0 32.75 32.75">
        <g>
            <g>
                <path d="M29.375,1.25h-1.123c0.029-0.093,0.059-0.186,0.059-0.289c0-0.53-0.432-0.961-0.963-0.961s-0.961,0.431-0.961,0.961
			c0,0.103,0.028,0.196,0.059,0.289h-3.68c0.029-0.093,0.059-0.186,0.059-0.289C22.823,0.431,22.393,0,21.861,0
			C21.331,0,20.9,0.431,20.9,0.961c0,0.103,0.029,0.196,0.059,0.289h-3.681c0.029-0.093,0.058-0.186,0.058-0.289
			c0-0.53-0.43-0.961-0.961-0.961s-0.961,0.431-0.961,0.961c0,0.103,0.028,0.196,0.058,0.289h-3.681
			c0.029-0.093,0.059-0.186,0.059-0.289C11.85,0.431,11.419,0,10.889,0c-0.531,0-0.962,0.431-0.962,0.961
			c0,0.103,0.028,0.196,0.058,0.289h-3.68c0.03-0.093,0.059-0.186,0.059-0.289C6.364,0.43,5.934,0,5.403,0
			C4.872,0,4.441,0.431,4.441,0.961c0,0.103,0.028,0.196,0.058,0.289H3.375c-1.518,0-2.75,1.233-2.75,2.75v26
			c0,1.518,1.232,2.75,2.75,2.75H26.27l5.855-5.855V4C32.125,2.484,30.893,1.25,29.375,1.25z M30.625,26.273l-0.311,0.311h-2.006
			V8.943c0-1.576-1.289-2.864-2.863-2.864H7.306c-1.576,0-2.864,1.289-2.864,2.864v18.14c0,1.576,1.289,2.864,2.864,2.864h18.139
			c0.176,0,0.347-0.021,0.514-0.053v1.045l-0.311,0.311H3.375c-0.689,0-1.25-0.561-1.25-1.25V5h28.5V26.273z M9.954,9.734V8.257
			h1.049v5.053H9.804l-1.08-1.95c-0.299-0.538-0.63-1.19-0.876-1.782L7.825,9.585c0.031,0.666,0.046,1.378,0.046,2.203v1.521h-1.05
			V8.256h1.335l1.049,1.852c0.299,0.531,0.6,1.163,0.825,1.732h0.022C9.977,11.173,9.954,10.492,9.954,9.734z M6.828,15.149h19.094
			v11.457c0,0.525-0.431,0.955-0.955,0.955H7.783c-0.526,0-0.955-0.43-0.955-0.955V15.149z M15.002,10.244v0.929h-1.86v1.198h2.077
			v0.938h-3.223V8.256h3.119v0.937h-1.973v1.05L15.002,10.244L15.002,10.244z M15.67,8.257h1.223l0.382,2.083
			c0.113,0.601,0.217,1.253,0.299,1.764h0.015c0.083-0.549,0.203-1.155,0.33-1.778l0.427-2.069h1.215l0.405,2.129
			c0.112,0.594,0.194,1.133,0.269,1.694h0.016c0.076-0.561,0.188-1.153,0.292-1.753l0.412-2.069h1.162l-1.304,5.053h-1.235
			l-0.427-2.174c-0.098-0.509-0.182-0.981-0.24-1.557h-0.016c-0.088,0.569-0.172,1.048-0.291,1.557l-0.479,2.174h-1.253L15.67,8.257
			z M23.891,13.384c-0.576,0-1.146-0.15-1.433-0.307l0.233-0.945c0.308,0.16,0.779,0.314,1.266,0.314
			c0.523,0,0.802-0.216,0.802-0.545c0-0.314-0.239-0.496-0.847-0.713c-0.839-0.292-1.387-0.756-1.387-1.49
			c0-0.864,0.72-1.523,1.912-1.523c0.569,0,0.988,0.122,1.289,0.256l-0.254,0.92c-0.203-0.096-0.562-0.238-1.059-0.238
			c-0.494,0-0.732,0.225-0.732,0.487c0,0.323,0.283,0.463,0.937,0.712c0.891,0.328,1.312,0.792,1.312,1.507
			C25.928,12.664,25.277,13.384,23.891,13.384z"/>
                <path d="M8.145,17.275h7.213c0.262,0,0.477-0.18,0.477-0.397c0-0.219-0.215-0.398-0.477-0.398H8.145
			c-0.263,0-0.477,0.179-0.477,0.398C7.667,17.096,7.882,17.275,8.145,17.275z"/>
                <path d="M8.145,19.066h7.213c0.262,0,0.477-0.18,0.477-0.397c0-0.219-0.215-0.397-0.477-0.397H8.145
			c-0.263,0-0.477,0.179-0.477,0.397C7.667,18.887,7.882,19.066,8.145,19.066z"/>
                <path d="M8.145,20.857h7.213c0.262,0,0.477-0.18,0.477-0.397c0-0.219-0.215-0.397-0.477-0.397H8.145
			c-0.263,0-0.477,0.179-0.477,0.397C7.667,20.678,7.882,20.857,8.145,20.857z"/>
                <path d="M8.145,22.648h7.213c0.262,0,0.477-0.18,0.477-0.397c0-0.219-0.215-0.397-0.477-0.397H8.145
			c-0.263,0-0.477,0.179-0.477,0.397C7.667,22.469,7.882,22.648,8.145,22.648z"/>
                <path d="M8.145,24.439h7.213c0.262,0,0.477-0.18,0.477-0.397c0-0.219-0.215-0.397-0.477-0.397H8.145
			c-0.263,0-0.477,0.179-0.477,0.397C7.667,24.26,7.882,24.439,8.145,24.439z"/>
                <path d="M8.145,26.23h7.213c0.262,0,0.477-0.18,0.477-0.397c0-0.219-0.215-0.397-0.477-0.397H8.145
			c-0.263,0-0.477,0.179-0.477,0.397C7.667,26.051,7.882,26.23,8.145,26.23z"/>
                <path d="M17.394,17.275h7.211c0.264,0,0.478-0.18,0.478-0.397c0-0.219-0.214-0.398-0.478-0.398h-7.211
			c-0.263,0-0.478,0.179-0.478,0.398C16.916,17.096,17.131,17.275,17.394,17.275z"/>
                <path d="M17.394,19.066h7.211c0.264,0,0.478-0.18,0.478-0.397c0-0.219-0.214-0.397-0.478-0.397h-7.211
			c-0.263,0-0.478,0.179-0.478,0.397C16.916,18.887,17.131,19.066,17.394,19.066z"/>
                <path d="M17.394,20.857h7.211c0.264,0,0.478-0.18,0.478-0.397c0-0.219-0.214-0.397-0.478-0.397h-7.211
			c-0.263,0-0.478,0.179-0.478,0.397C16.916,20.678,17.131,20.857,17.394,20.857z"/>
                <path d="M17.394,22.648h7.211c0.264,0,0.478-0.18,0.478-0.397c0-0.219-0.214-0.397-0.478-0.397h-7.211
			c-0.263,0-0.478,0.179-0.478,0.397C16.916,22.469,17.131,22.648,17.394,22.648z"/>
                <path d="M17.394,24.439h7.211c0.264,0,0.478-0.18,0.478-0.397c0-0.219-0.214-0.397-0.478-0.397h-7.211
			c-0.263,0-0.478,0.179-0.478,0.397C16.916,24.26,17.131,24.439,17.394,24.439z"/>
                <path d="M17.394,26.23h7.211c0.264,0,0.478-0.18,0.478-0.397c0-0.219-0.214-0.397-0.478-0.397h-7.211
			c-0.263,0-0.478,0.179-0.478,0.397C16.916,26.051,17.131,26.23,17.394,26.23z"/>
            </g>
        </g>
    </symbol>
    <symbol id="settings" viewBox="0 0 24 24">
        <path d="M14 4V4.56879C14 4.99659 14.2871 5.36825 14.6822 5.53228C15.0775 5.69638 15.5377 5.63384 15.8403 5.33123L16.2426 4.92891C16.6331 4.53838 17.2663 4.53838 17.6568 4.92891L19.071 6.34312C19.4616 6.73365 19.4616 7.36681 19.071 7.75734L18.6688 8.1596C18.3661 8.46223 18.3036 8.92247 18.4677 9.31774C18.6317 9.71287 19.0034 10 19.4313 10L20 10C20.5523 10 21 10.4477 21 11V13C21 13.5523 20.5523 14 20 14H19.4312C19.0034 14 18.6318 14.2871 18.4677 14.6822C18.3036 15.0775 18.3661 15.5377 18.6688 15.8403L19.071 16.2426M4.92889 17.6568C4.53837 17.2663 4.53837 16.6331 4.92889 16.2426L5.33123 15.8403C5.63384 15.5377 5.69638 15.0775 5.53228 14.6822C5.36825 14.2871 4.99659 14 4.56879 14H4C3.44772 14 3 13.5523 3 13V11C3 10.4477 3.44772 10 4 10L4.56877 10C4.99658 10 5.36825 9.71288 5.53229 9.31776C5.6964 8.9225 5.63386 8.46229 5.33123 8.15966L4.92891 7.75734C4.53838 7.36681 4.53838 6.73365 4.92891 6.34313L6.34312 4.92891C6.73365 4.53839 7.36681 4.53839 7.75734 4.92891L8.15966 5.33123C8.46228 5.63386 8.9225 5.6964 9.31776 5.53229C9.71288 5.36825 10 4.99658 10 4.56876V4C10 3.44772 10.4477 3 11 3M8.15955 18.6688C8.46218 18.3661 8.92242 18.3036 9.31769 18.4677C9.71282 18.6317 9.99995 19.0034 9.99995 19.4313V20C9.99995 20.5523 10.4477 21 10.9999 21H12.9999C13.5522 21 13.9999 20.5523 13.9999 20V19.4312C13.9999 19.0034 14.2871 18.6317 14.6822 18.4677C15.0774 18.3036 15.5377 18.3661 15.8403 18.6688L16.2426 19.071C16.6331 19.4616 17.2663 19.4616 17.6568 19.071M14 12C14 13.1046 13.1046 14 12 14C10.8954 14 10 13.1046 10 12C10 10.8954 10.8954 10 12 10" stroke="#000000" stroke-width="1.5" stroke-linecap="round"/>
    </symbol>
    <symbol  id='users' viewBox="0 0 36 36" >
        <title>users-outline-alerted</title>
        <path class="clr-i-outline--alerted clr-i-outline-path-1--alerted" d="M11.09,14.57c.1,0,.2,0,.31,0a6.43,6.43,0,0,1,.09-2,2.09,2.09,0,1,1,1.47-3,6.58,6.58,0,0,1,1.55-1.31,4.09,4.09,0,1,0-3.42,6.33Z"></path><path class="clr-i-outline--alerted clr-i-outline-path-2--alerted" d="M13,18.14a6.53,6.53,0,0,1-1.28-2.2l-.63,0a8.67,8.67,0,0,0-6.43,2.52l-.24.28v7h2V19.51a7,7,0,0,1,4.67-1.6A8.09,8.09,0,0,1,13,18.14Z"></path><path class="clr-i-outline--alerted clr-i-outline-path-3--alerted" d="M31.35,18.42A8.59,8.59,0,0,0,25,15.91c-.32,0-.6,0-.9.06a6.53,6.53,0,0,1-1.35,2.25A7.9,7.9,0,0,1,25,17.91a6.94,6.94,0,0,1,4.64,1.58v6.27h2V18.7Z"></path><path class="clr-i-outline--alerted clr-i-outline-path-4--alerted" d="M18.1,19.73A9.69,9.69,0,0,0,11,22.47l-.25.28v7.33a1.57,1.57,0,0,0,1.61,1.54H23.83a1.57,1.57,0,0,0,1.61-1.54V22.73l-.25-.28A9.58,9.58,0,0,0,18.1,19.73Zm5.33,9.88H12.73V23.55a8.08,8.08,0,0,1,5.37-1.82,8,8,0,0,1,5.33,1.8Z"></path><path class="clr-i-outline--alerted clr-i-outline-path-5--alerted" d="M20.28,14.27a2.46,2.46,0,1,1-2.42-2.89,2.44,2.44,0,0,1,1,.24,3.67,3.67,0,0,1,.43-2,4.41,4.41,0,0,0-1.48-.27A4.47,4.47,0,1,0,22.14,15,3.69,3.69,0,0,1,20.28,14.27Z"></path><path class="clr-i-outline--alerted clr-i-outline-path-6--alerted clr-i-alert" d="M27.18.8l-5.72,9.91a1.28,1.28,0,0,0,1.1,1.91H34a1.28,1.28,0,0,0,1.1-1.91L29.39.8A1.28,1.28,0,0,0,27.18.8Z"></path>
        <rect x="0" y="0" width="36" height="36" fill-opacity="0"/>
    </symbol>
<symbol id="friends" viewBox="0 0 1000 1000">
    <path d="M500 69q-119 0-220 59-99 58-157 157-59 101-59 220t59 220q58 99 157 157 101 59 220 59t220-59q99-58 157-157 59-101 59-219.5T877 285q-58-99-157-157-101-59-220-59zm132 246q25 0 43 32t18 77-18 77-43.5 32-43-32-17.5-77 17.5-77 43.5-32zm-264 0q26 0 43.5 32t17.5 77-17.5 77-43 32-43-32-17.5-77 17.5-77 42.5-32zm405 349q-9 15-41 3-38 63-98 100-62 38-134 38t-134-38q-60-37-98-100-32 12-41-3-6-10 3-23 9-15 35-30t44-17 23 7q4 7-.5 17.5T314 640q32 44 80.5 70T500 736t105.5-26 80.5-70q-13-12-17.5-22t-.5-17q5-9 23-7t44 17 35 30q9 13 3 23z"/>

</symbol>
<circle cx="10" cy="6" r="4" stroke="#1C274C" stroke-width="1.5"/>
<path d="M18.0429 12.3656L18.4865 11.7609L18.4865 11.7609L18.0429 12.3656ZM19 8.69135L18.4813 9.23307C18.7713 9.51077 19.2287 9.51077 19.5187 9.23307L19 8.69135ZM19.9571 12.3656L19.5135 11.7609L19.5135 11.7609L19.9571 12.3656ZM19 12.8276L19 13.5776H19L19 12.8276ZM18.4865 11.7609C18.0686 11.4542 17.6081 11.0712 17.2595 10.6681C16.8912 10.2423 16.75 9.91131 16.75 9.69673H15.25C15.25 10.4666 15.6912 11.1479 16.1249 11.6493C16.5782 12.1735 17.1391 12.6327 17.5992 12.9703L18.4865 11.7609ZM16.75 9.69673C16.75 9.12068 17.0126 8.87002 17.2419 8.78964C17.4922 8.70189 17.9558 8.72986 18.4813 9.23307L19.5187 8.14963C18.6943 7.36028 17.6579 7.05432 16.7457 7.3741C15.8125 7.70123 15.25 8.59955 15.25 9.69673H16.75ZM20.4008 12.9703C20.8609 12.6327 21.4218 12.1735 21.8751 11.6493C22.3088 11.1479 22.75 10.4666 22.75 9.69672H21.25C21.25 9.91132 21.1088 10.2424 20.7405 10.6681C20.3919 11.0713 19.9314 11.4542 19.5135 11.7609L20.4008 12.9703ZM22.75 9.69672C22.75 8.59954 22.1875 7.70123 21.2543 7.37409C20.3421 7.05432 19.3057 7.36028 18.4813 8.14963L19.5187 9.23307C20.0442 8.72986 20.5078 8.70189 20.7581 8.78964C20.9874 8.87002 21.25 9.12068 21.25 9.69672H22.75ZM17.5992 12.9703C17.9678 13.2407 18.3816 13.5776 19 13.5776L19 12.0776C18.9756 12.0776 18.9605 12.0775 18.9061 12.0488C18.8202 12.0034 18.7128 11.9269 18.4865 11.7609L17.5992 12.9703ZM19.5135 11.7609C19.2872 11.9269 19.1798 12.0034 19.0939 12.0488C19.0395 12.0775 19.0244 12.0776 19 12.0776L19 13.5776C19.6184 13.5776 20.0322 13.2407 20.4008 12.9703L19.5135 11.7609Z" fill="#1C274C"/>
<path d="M13 20.6151C12.0907 20.8619 11.0736 21 10 21C6.13401 21 3 19.2091 3 17C3 14.7909 6.13401 13 10 13C13.866 13 17 14.7909 17 17C17 17.3453 16.9234 17.6804 16.7795 18" stroke="#1C274C" stroke-width="1.5" stroke-linecap="round"/>
</svg>